<?xml version="1.0" encoding="UTF-8" standalone="no"?>
<svg
   viewBox="0 0 46.77 46.770001"
   height="46.77"
   width="46.77"
   xml:space="preserve"
   id="svg2"
   version="1.1"
   sodipodi:docname="AVEVA_Logo_color_RGB.svg"
   inkscape:version="1.2 (dc2aedaf03, 2022-05-15)"
   xmlns:inkscape="http://www.inkscape.org/namespaces/inkscape"
   xmlns:sodipodi="http://sodipodi.sourceforge.net/DTD/sodipodi-0.dtd"
   xmlns="http://www.w3.org/2000/svg"
   xmlns:svg="http://www.w3.org/2000/svg"
   xmlns:rdf="http://www.w3.org/1999/02/22-rdf-syntax-ns#"
   xmlns:cc="http://creativecommons.org/ns#"
   xmlns:dc="http://purl.org/dc/elements/1.1/"><sodipodi:namedview
     id="namedview105"
     pagecolor="#505050"
     bordercolor="#eeeeee"
     borderopacity="1"
     inkscape:showpageshadow="0"
     inkscape:pageopacity="0"
     inkscape:pagecheckerboard="0"
     inkscape:deskcolor="#505050"
     showgrid="false"
     inkscape:zoom="6.1311221"
     inkscape:cx="81.714242"
     inkscape:cy="13.863694"
     inkscape:window-width="2560"
     inkscape:window-height="1377"
     inkscape:window-x="1912"
     inkscape:window-y="-8"
     inkscape:window-maximized="1"
     inkscape:current-layer="g12" /><metadata
     id="metadata8"><rdf:RDF><cc:Work
         rdf:about=""><dc:format>image/svg+xml</dc:format><dc:type
           rdf:resource="http://purl.org/dc/dcmitype/StillImage" /></cc:Work></rdf:RDF></metadata><defs
     id="defs6" /><g
     transform="matrix(0.13333333,0,0,-0.13333333,8.0483883e-5,46.769832)"
     id="g12"><rect
       style="fill:#3d1152;fill-opacity:1;stroke-width:10.5242"
       id="rect425"
       width="350.77499"
       height="350.77499"
       x="-0.00060362916"
       y="-350.77374"
       transform="scale(1,-1)" /><path
       id="path22"
       style="fill:#ffffff;fill-opacity:1;fill-rule:nonzero;stroke:none;stroke-width:0.885624"
       d="m 159.73265,130.9132 36.95331,84.70758 c 1.23424,2.77202 5.20036,2.77202 6.4346,0 L 240.51524,130.9132 Z M 335.53564,25.694919 203.10276,327.84147 c -1.2378,2.7544 -5.18256,2.7544 -6.42747,0.004 L 111.00201,130.9132 H 22.690205 c -2.238563,0 -3.747158,-2.27315 -2.860771,-4.31449 L 36.323155,88.829115 c 0.448401,-1.022608 1.463467,-1.6767 2.586207,-1.6767 H 91.960464 L 65.240211,25.729356 c -1.039359,-2.306809 0.660456,-4.9166 3.211869,-4.9166 h 40.93038 c 1.39352,0 2.65179,0.802218 3.21863,2.058912 l 28.03778,64.280747 h 119.18906 l 28.37148,-64.280747 c 0.56328,-1.256694 1.82511,-2.076127 3.21507,-2.076127 h 40.90608 c 2.54412,0 4.24732,2.599462 3.21508,4.899378" /></g></svg>
